<svg width="20" height="20" viewBox="0 0 20 20" fill="none" xmlns="http://www.w3.org/2000/svg">
<g clip-path="url(#clip0_595_3417)">
<path d="M12.2448 5.248C12.0922 5.40371 12.0067 5.61306 12.0067 5.83109C12.0067 6.04913 12.0922 6.25847 12.2448 6.41418L13.5776 7.74696C13.7333 7.89959 13.9427 7.98508 14.1607 7.98508C14.3787 7.98508 14.5881 7.89959 14.7438 7.74696L17.3311 5.16054C17.5976 4.89232 18.0499 4.97728 18.1499 5.34213C18.4016 6.25748 18.3873 7.22557 18.1089 8.13313C17.8304 9.04069 17.2993 9.85017 16.5775 10.4669C15.8558 11.0836 14.9734 11.4819 14.0335 11.6154C13.0936 11.7489 12.1351 11.6119 11.2702 11.2205L4.68133 17.8094C4.34994 18.1407 3.90054 18.3268 3.43197 18.3267C2.9634 18.3266 2.51406 18.1404 2.18278 17.809C1.85151 17.4776 1.66545 17.0282 1.66553 16.5597C1.66561 16.0911 1.85182 15.6417 2.1832 15.3105L8.77212 8.72156C8.38074 7.85668 8.24376 6.89822 8.37723 5.95833C8.5107 5.01844 8.90909 4.13601 9.52578 3.41428C10.1425 2.69255 10.952 2.16138 11.8595 1.88293C12.7671 1.60447 13.7352 1.59025 14.6505 1.84192C15.0154 1.94188 15.1003 2.39336 14.8329 2.66158L12.2448 5.248Z" stroke="#1F6650" stroke-width="1.66597" stroke-linecap="round" stroke-linejoin="round"/>
</g>
<defs>
<clipPath id="clip0_595_3417">
<rect width="19.9917" height="19.9917" fill="white"/>
</clipPath>
</defs>
</svg>
