<svg width="20" height="20" viewBox="0 0 20 20" fill="none" xmlns="http://www.w3.org/2000/svg">
<path d="M17.4802 10.4004C17.4021 11.8466 16.9068 13.2392 16.0542 14.4099C15.2015 15.5806 14.028 16.4793 12.6755 16.9973C11.323 17.5153 9.84945 17.6304 8.43292 17.3288C7.01638 17.0272 5.71753 16.3217 4.69338 15.2977C3.66923 14.2736 2.96362 12.9749 2.66186 11.5584C2.36009 10.1419 2.47508 8.66826 2.99294 7.31572C3.51079 5.96317 4.40933 4.78958 5.57994 3.93681C6.75055 3.08403 8.14311 2.58859 9.58929 2.51037C9.92665 2.49205 10.1032 2.89354 9.92415 3.17926C9.32514 4.13765 9.06865 5.27078 9.19654 6.39371C9.32442 7.51665 9.82913 8.56308 10.6283 9.36225C11.4275 10.1614 12.4739 10.6661 13.5968 10.794C14.7198 10.9219 15.8529 10.6654 16.8113 10.0664C17.0978 9.8873 17.4985 10.0631 17.4802 10.4004Z" stroke="#1F6650" stroke-width="1.66597" stroke-linecap="round" stroke-linejoin="round"/>
</svg>
