<svg width="20" height="20" viewBox="0 0 20 20" fill="none" xmlns="http://www.w3.org/2000/svg">
<g clip-path="url(#clip0_595_3412)">
<path d="M9.99585 1.66602V18.3257" stroke="#1F6650" stroke-width="1.66597" stroke-linecap="round" stroke-linejoin="round"/>
<path d="M14.1608 4.16504H7.91338C7.14015 4.16504 6.39859 4.4722 5.85184 5.01896C5.30509 5.56571 4.99792 6.30727 4.99792 7.08049C4.99792 7.85372 5.30509 8.59527 5.85184 9.14203C6.39859 9.68878 7.14015 9.99594 7.91338 9.99594H12.0783C12.8515 9.99594 13.5931 10.3031 14.1398 10.8499C14.6866 11.3966 14.9938 12.1382 14.9938 12.9114C14.9938 13.6846 14.6866 14.4262 14.1398 14.9729C13.5931 15.5197 12.8515 15.8268 12.0783 15.8268H4.99792" stroke="#1F6650" stroke-width="1.66597" stroke-linecap="round" stroke-linejoin="round"/>
</g>
<defs>
<clipPath id="clip0_595_3412">
<rect width="19.9917" height="19.9917" fill="white"/>
</clipPath>
</defs>
</svg>
