<svg width="20" height="20" viewBox="0 0 20 20" fill="none" xmlns="http://www.w3.org/2000/svg">
<path d="M1.71759 10.2858C1.64817 10.0988 1.64817 9.89306 1.71759 9.70604C2.39373 8.0666 3.54143 6.66484 5.0152 5.67847C6.48896 4.69209 8.22242 4.16553 9.99581 4.16553C11.7692 4.16553 13.5027 4.69209 14.9764 5.67847C16.4502 6.66484 17.5979 8.0666 18.274 9.70604C18.3435 9.89306 18.3435 10.0988 18.274 10.2858C17.5979 11.9252 16.4502 13.327 14.9764 14.3134C13.5027 15.2997 11.7692 15.8263 9.99581 15.8263C8.22242 15.8263 6.48896 15.2997 5.0152 14.3134C3.54143 13.327 2.39373 11.9252 1.71759 10.2858Z" stroke="#1F6650" stroke-width="1.66597" stroke-linecap="round" stroke-linejoin="round"/>
<path d="M9.99603 12.495C11.3762 12.495 12.495 11.3762 12.495 9.99603C12.495 8.61589 11.3762 7.49707 9.99603 7.49707C8.61589 7.49707 7.49707 8.61589 7.49707 9.99603C7.49707 11.3762 8.61589 12.495 9.99603 12.495Z" stroke="#1F6650" stroke-width="1.66597" stroke-linecap="round" stroke-linejoin="round"/>
</svg>
