<svg width="20" height="20" viewBox="0 0 20 20" fill="none" xmlns="http://www.w3.org/2000/svg">
<path d="M16.6598 8.32991C16.6598 12.489 12.0459 16.8205 10.4965 18.1583C10.3522 18.2668 10.1765 18.3255 9.99592 18.3255C9.81533 18.3255 9.63963 18.2668 9.4953 18.1583C7.94594 16.8205 3.33203 12.489 3.33203 8.32991C3.33203 6.56253 4.03412 4.86755 5.28384 3.61782C6.53356 2.3681 8.22855 1.66602 9.99592 1.66602C11.7633 1.66602 13.4583 2.3681 14.708 3.61782C15.9577 4.86755 16.6598 6.56253 16.6598 8.32991Z" stroke="#1F6650" stroke-width="1.66597" stroke-linecap="round" stroke-linejoin="round"/>
<path d="M9.99603 10.829C11.3762 10.829 12.495 9.71015 12.495 8.33001C12.495 6.94988 11.3762 5.83105 9.99603 5.83105C8.61589 5.83105 7.49707 6.94988 7.49707 8.33001C7.49707 9.71015 8.61589 10.829 9.99603 10.829Z" stroke="#1F6650" stroke-width="1.66597" stroke-linecap="round" stroke-linejoin="round"/>
</svg>
