<svg width="16" height="16" viewBox="0 0 16 16" fill="none" xmlns="http://www.w3.org/2000/svg">
<g clip-path="url(#clip0_266_3878)">
<path d="M9.21772 11.041C9.35535 11.1042 9.5104 11.1186 9.65734 11.0819C9.80427 11.0452 9.93431 10.9595 10.0261 10.839L10.2626 10.5292C10.3868 10.3637 10.5477 10.2293 10.7328 10.1368C10.9179 10.0442 11.1219 9.99607 11.3288 9.99607H13.328C13.6815 9.99607 14.0205 10.1365 14.2704 10.3864C14.5204 10.6364 14.6608 10.9754 14.6608 11.3288V13.328C14.6608 13.6815 14.5204 14.0205 14.2704 14.2704C14.0205 14.5204 13.6815 14.6608 13.328 14.6608C10.1467 14.6608 7.09576 13.397 4.84626 11.1475C2.59676 8.89804 1.33301 5.84706 1.33301 2.66579C1.33301 2.31231 1.47343 1.97331 1.72337 1.72337C1.97331 1.47343 2.31231 1.33301 2.66579 1.33301H4.66495C5.01843 1.33301 5.35743 1.47343 5.60737 1.72337C5.85731 1.97331 5.99773 2.31231 5.99773 2.66579V4.66495C5.99773 4.87186 5.94956 5.07593 5.85703 5.26099C5.76449 5.44605 5.63015 5.60703 5.46462 5.73118L5.15275 5.96508C5.03041 6.05849 4.94418 6.19137 4.90871 6.34116C4.87324 6.49094 4.89071 6.64838 4.95816 6.78674C5.86891 8.63654 7.36678 10.1325 9.21772 11.041Z" stroke="#6F9A8D" stroke-width="1.33278" stroke-linecap="round" stroke-linejoin="round"/>
</g>
<defs>
<clipPath id="clip0_266_3878">
<rect width="15.9933" height="15.9933" fill="white"/>
</clipPath>
</defs>
</svg>
