<svg width="20" height="20" viewBox="0 0 20 20" fill="none" xmlns="http://www.w3.org/2000/svg">
<g clip-path="url(#clip0_595_3394)">
<path d="M8.05578 3.44541C8.10167 2.96256 8.32594 2.51417 8.68477 2.18783C9.04359 1.8615 9.51119 1.68066 9.99622 1.68066C10.4812 1.68066 10.9488 1.8615 11.3077 2.18783C11.6665 2.51417 11.8908 2.96256 11.9367 3.44541C11.9642 3.75732 12.0666 4.058 12.235 4.32199C12.4034 4.58598 12.6329 4.80551 12.9041 4.96201C13.1754 5.1185 13.4803 5.20734 13.7931 5.22102C14.106 5.23469 14.4175 5.1728 14.7013 5.04058C15.1421 4.84047 15.6415 4.81152 16.1024 4.95935C16.5633 5.10718 16.9528 5.42121 17.1949 5.84033C17.437 6.25945 17.5146 6.75367 17.4124 7.22681C17.3103 7.69994 17.0357 8.11814 16.6422 8.40001C16.386 8.57981 16.1768 8.81868 16.0324 9.09641C15.888 9.37414 15.8126 9.68257 15.8126 9.9956C15.8126 10.3086 15.888 10.6171 16.0324 10.8948C16.1768 11.1725 16.386 11.4114 16.6422 11.5912C17.0357 11.8731 17.3103 12.2912 17.4124 12.7644C17.5146 13.2375 17.437 13.7317 17.1949 14.1509C16.9528 14.57 16.5633 14.884 16.1024 15.0318C15.6415 15.1797 15.1421 15.1507 14.7013 14.9506C14.4175 14.8184 14.106 14.7565 13.7931 14.7702C13.4803 14.7838 13.1754 14.8727 12.9041 15.0292C12.6329 15.1857 12.4034 15.4052 12.235 15.6692C12.0666 15.9332 11.9642 16.2339 11.9367 16.5458C11.8908 17.0286 11.6665 17.477 11.3077 17.8034C10.9488 18.1297 10.4812 18.3105 9.99622 18.3105C9.51119 18.3105 9.04359 18.1297 8.68477 17.8034C8.32594 17.477 8.10167 17.0286 8.05578 16.5458C8.02824 16.2338 7.92591 15.933 7.75746 15.6689C7.589 15.4048 7.35938 15.1852 7.08804 15.0287C6.8167 14.8722 6.51165 14.7834 6.1987 14.7698C5.88576 14.7562 5.57415 14.8182 5.29026 14.9506C4.84952 15.1507 4.35009 15.1797 3.88918 15.0318C3.42827 14.884 3.03885 14.57 2.7967 14.1509C2.55456 13.7317 2.47703 13.2375 2.57919 12.7644C2.68135 12.2912 2.9559 11.8731 3.34941 11.5912C3.60565 11.4114 3.81482 11.1725 3.95922 10.8948C4.10363 10.6171 4.17902 10.3086 4.17902 9.9956C4.17902 9.68257 4.10363 9.37414 3.95922 9.09641C3.81482 8.81868 3.60565 8.57981 3.34941 8.40001C2.95646 8.118 2.68239 7.69996 2.58048 7.22715C2.47856 6.75434 2.55608 6.26052 2.79796 5.84167C3.03983 5.42282 3.4288 5.10886 3.88926 4.96081C4.34971 4.81276 4.84877 4.84119 5.28943 5.04058C5.57328 5.1728 5.8848 5.23469 6.19764 5.22102C6.51047 5.20734 6.8154 5.1185 7.08663 4.96201C7.35785 4.80551 7.58738 4.58598 7.75579 4.32199C7.9242 4.058 8.02653 3.75732 8.05411 3.44541" stroke="#1F6650" stroke-width="1.66597" stroke-linecap="round" stroke-linejoin="round"/>
<path d="M9.99579 12.495C11.3759 12.495 12.4947 11.3762 12.4947 9.99603C12.4947 8.61589 11.3759 7.49707 9.99579 7.49707C8.61565 7.49707 7.49683 8.61589 7.49683 9.99603C7.49683 11.3762 8.61565 12.495 9.99579 12.495Z" stroke="#1F6650" stroke-width="1.66597" stroke-linecap="round" stroke-linejoin="round"/>
</g>
<defs>
<clipPath id="clip0_595_3394">
<rect width="19.9917" height="19.9917" fill="white"/>
</clipPath>
</defs>
</svg>
