<svg width="20" height="20" viewBox="0 0 20 20" fill="none" xmlns="http://www.w3.org/2000/svg">
<path d="M7.49682 2.49902H3.33189C2.87184 2.49902 2.4989 2.87196 2.4989 3.33201V9.16291C2.4989 9.62296 2.87184 9.9959 3.33189 9.9959H7.49682C7.95687 9.9959 8.32981 9.62296 8.32981 9.16291V3.33201C8.32981 2.87196 7.95687 2.49902 7.49682 2.49902Z" stroke="#1F6650" stroke-width="1.66597" stroke-linecap="round" stroke-linejoin="round"/>
<path d="M16.6598 2.49902H12.4949C12.0348 2.49902 11.6619 2.87196 11.6619 3.33201V5.83097C11.6619 6.29101 12.0348 6.66396 12.4949 6.66396H16.6598C17.1198 6.66396 17.4928 6.29101 17.4928 5.83097V3.33201C17.4928 2.87196 17.1198 2.49902 16.6598 2.49902Z" stroke="#1F6650" stroke-width="1.66597" stroke-linecap="round" stroke-linejoin="round"/>
<path d="M16.6598 9.99609H12.4949C12.0348 9.99609 11.6619 10.369 11.6619 10.8291V16.66C11.6619 17.12 12.0348 17.493 12.4949 17.493H16.6598C17.1198 17.493 17.4928 17.12 17.4928 16.66V10.8291C17.4928 10.369 17.1198 9.99609 16.6598 9.99609Z" stroke="#1F6650" stroke-width="1.66597" stroke-linecap="round" stroke-linejoin="round"/>
<path d="M7.49682 13.3281H3.33189C2.87184 13.3281 2.4989 13.7011 2.4989 14.1611V16.6601C2.4989 17.1201 2.87184 17.4931 3.33189 17.4931H7.49682C7.95687 17.4931 8.32981 17.1201 8.32981 16.6601V14.1611C8.32981 13.7011 7.95687 13.3281 7.49682 13.3281Z" stroke="#1F6650" stroke-width="1.66597" stroke-linecap="round" stroke-linejoin="round"/>
</svg>
